<?xml version="1.0" encoding="utf-8"?>
<!-- Generator: Adobe Illustrator 26.2.1, SVG Export Plug-In . SVG Version: 6.00 Build 0)  -->
<svg version="1.1" id="圖層_1" xmlns="http://www.w3.org/2000/svg" xmlns:xlink="http://www.w3.org/1999/xlink" x="0px" y="0px"
	 viewBox="0 0 809.96 73.09" style="enable-background:new 0 0 809.96 73.09;" xml:space="preserve">
<style type="text/css">
	.st0{fill:#FFFFFF;}
</style>
<g id="LOGO_00000147185166987521404430000011982831499810704051_">
	<path class="st0" d="M720.71,48.6l29.5-0.07c5.62,0,6.55,0.55,5.38,3.16l-2.24,4.89c-1.23,2.68-2.6,3.11-8.25,3.19l-34.98,0.03
		c-7.11,0.04-10.07-1.33-13-2.66l-3.52,14.57l65.24-0.18c17.38-0.03,25.55-6.3,30.69-17.62l7.96-17.42
		c4.73-10.39-1.73-14.4-17.19-14.37l-25.62,0.09c-5.67,0-6.8-0.47-5.58-3.14l1.86-4.04c1.16-2.54,2.76-3.09,8.39-3.1l33.66-0.07
		c6.97-0.01,9.83,0.86,13.57,2.26L809.96,0l-67.2,0.11c-12.78,0-22.67,5.83-27.78,17.03l-7.24,15.97
		C702.28,45.06,706.27,48.64,720.71,48.6z"/>
	<path class="st0" d="M798.5,67l-1.89-2.96c1.01-0.11,1.76-0.62,1.76-1.84c0-1.37-0.83-1.94-2.46-1.94h-2.56V67h1.11v-2.88h1.04
		l1.74,2.88H798.5z M794.47,63.18V61.2h1.34c0.67,0,1.47,0.1,1.47,0.91c0,0.98-0.73,1.06-1.56,1.06H794.47z"/>
	<path class="st0" d="M801.63,63.52c0-3.66-2.77-6.09-5.96-6.09c-3.22,0-5.99,2.43-5.99,6.09c0,3.47,2.49,6.09,5.99,6.09
		C798.86,69.61,801.63,67.18,801.63,63.52z M790.98,63.52c0-2.96,2.05-5.03,4.69-5.03c2.61,0,4.66,2.07,4.66,5.03
		c0,2.98-2.05,5.03-4.66,5.03C792.77,68.55,790.98,66.29,790.98,63.52z"/>
	<path class="st0" d="M591,59.59c-3.11,6.82-5.5,9.51-8.58,12.32l42.12-0.12c-0.52-2.77-0.45-5.44,2.64-12.28l8.57-18.77h11.09
		l3.07,31.01l40.44-0.08c-1.88-2.71-1.94-6.39-2.8-10.93l-3.79-20.1c7.91-0.44,15.01-1.02,19.8-11.5l5.98-13.21
		c5.42-11.99-0.83-15.75-17.42-15.72l-78.01,0.15c1.35,2.8,1.33,5.5-1.76,12.3L591,59.59z M648.76,12.12l20.46-0.04
		c4.61,0.01,5.7,0.56,4.1,4l-3.96,8.73c-1.6,3.45-3.2,4.01-7.77,4.03l-20.49,0.05L648.76,12.12z"/>
	<path class="st0" d="M391.57,60c-3.13,6.79-5.5,9.46-8.57,12.33l42.12-0.12c-0.49-2.82-0.49-5.47,2.64-12.28l8.52-18.79l26.99-0.07
		l-8.54,18.78c-3.11,6.77-5.51,9.5-8.55,12.31l42.08-0.07c-0.45-2.81-0.43-5.47,2.68-12.28l21.37-46.96
		c3.11-6.84,5.52-9.49,8.57-12.33l-42.14,0.12c0.52,2.79,0.43,5.44-2.64,12.29l-7.42,16.33l-26.98,0.02l7.43-16.31
		c3.1-6.8,5.52-9.49,8.57-12.3l-42.14,0.1c0.52,2.8,0.49,5.44-2.61,12.31L391.57,60z"/>
	<path class="st0" d="M520.87,12.86L499.52,59.8c-3.13,6.77-5.54,9.47-8.61,12.29l83.65-0.21l9.55-13.7
		c-4.17,0.9-8.76,1.89-17.19,1.88l-31.43,0.11l8.75-19.25l25.79-0.01c8.29-0.07,12.01,0.96,15.45,1.84l7.09-15.66
		c-4.25,0.92-8.84,1.93-17.15,1.92l-25.82,0.07l7.64-16.76l29.5-0.09c8.49,0.02,12.16,0.99,15.63,1.91l3.29-13.75l-82.16,0.17
		C524,3.33,523.96,6.03,520.87,12.86z"/>
	<path class="st0" d="M317,72.45l58.44-0.14l9.72-14.53c-5.74,1.89-8.47,2.71-23,2.74l-20.47,0.02c-4.73,0.01-6.59-1.1-5.07-4.54
		l17.62-38.67c1.6-3.48,4.48-4.59,9.21-4.62l25.95-0.02c6.98-0.05,10.17,0.73,13.66,1.88l3.45-13.76l-56.94,0.12
		c-15.44,0.02-26.55,5.63-33.6,21.02l-13.43,29.54C295.56,66.89,301.6,72.46,317,72.45z"/>
	<path class="st0" d="M100.61,60.63c-3.06,6.77-5.47,9.44-8.52,12.26l42.09-0.04c-0.47-2.84-0.45-5.54,2.63-12.3l4.9-10.77
		l11.88-7.24l7.42,30.22l39-0.1c-0.01,0.01-0.02,0.02-0.03,0.03l83.65-0.17l9.52-13.76c-4.12,0.9-8.71,1.91-17.19,1.92l-31.43,0.07
		l8.78-19.21l25.81-0.07c8.29-0.04,11.99,0.97,15.43,1.89l7.11-15.64c-4.26,0.86-8.87,1.87-17.15,1.92l-25.81,0.04l7.64-16.79h29.49
		c8.46-0.04,12.15,0.95,15.62,1.82l3.27-13.74l-82.13,0.21c0.49,2.78,0.44,5.43-2.66,12.29l-21.35,46.86
		c-1.94,4.3-3.62,6.87-5.35,8.94c-2.2-3.75-3.81-8.08-4.86-11.22l-11.57-35.69L210.7,8.24c6.9-4.06,10.53-5.28,15.68-7.09l-33.1,0.1
		c-0.26,0.89-0.46,1.79-0.91,2.66c-1.07,2.37-2.76,4.14-8.54,7.75l-34.63,21.74l8.99-19.82c3.11-6.78,5.54-9.48,8.56-12.29
		l-42.11,0.08c0.51,2.82,0.48,5.52-2.6,12.32L100.61,60.63z"/>
	<path class="st0" d="M95.92,55.34l7.93-17.4c4.75-10.42-1.71-14.41-17.15-14.37l-25.67,0.04c-5.65,0.02-6.76-0.44-5.54-3.1
		l1.85-4.04c1.15-2.56,2.74-3.13,8.37-3.13l33.66-0.07c6.98-0.03,9.84,0.89,13.59,2.26l3.36-14.15L49.18,1.53
		C36.43,1.55,26.51,7.35,21.41,18.56l-7.26,15.95c-5.49,12-1.44,15.55,12.96,15.55l29.47-0.12c5.66,0.04,6.59,0.59,5.42,3.15
		l-2.24,4.93c-1.22,2.7-2.61,3.13-8.26,3.09l-34.98,0.1c-7.11,0-10.06-1.32-13.03-2.65L0,73.09l65.27-0.14
		C82.6,72.91,90.78,66.67,95.92,55.34z"/>
</g>
</svg>
