<?xml version="1.0" encoding="utf-8"?>
<!-- Generator: Adobe Illustrator 26.2.1, SVG Export Plug-In . SVG Version: 6.00 Build 0)  -->
<svg version="1.1" id="圖層_1" xmlns="http://www.w3.org/2000/svg" xmlns:xlink="http://www.w3.org/1999/xlink" x="0px" y="0px"
	 viewBox="0 0 588.69 176.99" style="enable-background:new 0 0 588.69 176.99;" xml:space="preserve">
<style type="text/css">
	.st0{fill:#FFFFFF;}
</style>
<g>
	<g>
		<g>
			<g>
				<path class="st0" d="M80.11,26.16c3.36-7.42-1.25-10.29-12.21-10.29l-18.32,0.01c-3.98-0.01-4.82-0.33-3.94-2.25l1.32-2.86
					c0.81-1.85,1.98-2.21,5.97-2.21l24-0.01c4.96,0,7.05,0.65,9.72,1.68l2.38-10.12L41.16,0.12c-9.13-0.01-16.22,4.13-19.85,12.12
					l-5.15,11.4c-3.97,8.5-1.12,11.03,9.15,11.03l21.05,0.01c4.03,0,4.69,0.4,3.84,2.24l-1.61,3.5c-0.84,1.9-1.88,2.21-5.88,2.22
					H17.78c-5.14,0-7.16-0.95-9.25-1.9L5.96,51.12l46.58-0.01c12.39-0.01,18.19-4.49,21.85-12.49L80.11,26.16z"/>
				<path class="st0" d="M205.06,28.9c5.97,0,8.58,0.73,11.06,1.37l5.11-11.13c-3.06,0.6-6.33,1.33-12.27,1.32h-18.43l5.5-11.92
					l20.99-0.01c6.07,0.01,8.69,0.69,11.16,1.35l2.39-9.8l-58.61-0.01c0.39,2.01,0.3,3.91-1.89,8.75l-15.3,33.47
					c-1.39,3.02-2.59,4.88-3.81,6.36c-1.56-2.71-2.71-5.8-3.47-8.02l-8.24-25.5l17.09-10.02c4.87-2.89,7.55-3.75,11.19-5.04
					L143.94,0.1c-0.19,0.65-0.33,1.27-0.62,1.91c-0.78,1.71-2.04,2.94-6.13,5.53l-24.76,15.45l6.45-14.14
					c2.21-4.85,3.95-6.73,6.13-8.75L94.93,0.11c0.4,2.01,0.36,3.88-1.87,8.73l-15.3,33.48c-2.21,4.84-3.91,6.73-6.11,8.79l30.02,0
					c-0.31-2.07-0.31-3.96,1.88-8.8l3.53-7.65l8.5-5.2l5.25,21.63l87.44-0.02l6.83-9.82c-2.95,0.62-6.23,1.35-12.22,1.35h-22.46
					l6.3-13.7L205.06,28.9z"/>
				<path class="st0" d="M282.39,38.69c0,0-8.17,1.91-18.42,1.9c0,0-10.01,0.03-12.09,0c-2.62-0.01-3.42-0.73-2.43-3.24
					c0.99-2.51,10.96-23.95,10.96-23.95c0.35-0.77,1.6-2.89,4.82-2.89l18.97,0c4.72-0.01,8.95,1.58,8.95,1.58l3.02-11.73L296,0.39
					l0.09-0.32l-40.64,0.01c-11.05,0-18.99,3.98-24.03,14.99l-9.6,21.02c-5.04,10.95-0.69,14.98,10.28,14.98l41.73-0.02
					L282.39,38.69z"/>
				<path class="st0" d="M356.2,42.26l15.32-33.48c2.19-4.83,3.93-6.72,6.08-8.73l-30.04,0.01c0.37,2,0.35,3.88-1.88,8.72
					l-5.3,11.66h-19.28l5.36-11.65c2.24-4.86,3.93-6.74,6.14-8.74l-30.06,0.01c0.37,2,0.33,3.87-1.93,8.73l-15.27,33.48
					c-2.24,4.82-3.95,6.74-6.17,8.78l30.06-0.01c-0.35-2.04-0.33-3.94,1.93-8.77l6.13-13.4l19.22-0.01l-6.11,13.4
					c-2.22,4.82-3.94,6.73-6.13,8.78l30.01,0C353.93,49.01,353.97,47.1,356.2,42.26z"/>
				<path class="st0" d="M410.4,42.57l-22.4,0l6.24-13.69l18.41,0c5.9-0.01,8.58,0.72,11.02,1.35l5.1-11.12
					c-3.07,0.61-6.33,1.34-12.22,1.33l-18.46,0l5.48-11.93l21.03,0c6.07,0,8.67,0.7,11.15,1.35l2.36-9.79l-58.58,0.01
					c0.34,2.01,0.3,3.89-1.93,8.74l-15.27,33.46c-2.25,4.84-3.98,6.74-6.13,8.78l59.62-0.01l6.82-9.83
					C419.76,41.85,416.41,42.58,410.4,42.57z"/>
				<path class="st0" d="M493.78,28.85c5.66-0.29,10.7-0.7,14.14-8.18l4.27-9.39c3.91-8.55-0.57-11.25-12.4-11.25l-55.64,0.01
					c0.99,2.02,0.96,3.89-1.28,8.75l-15.29,33.48c-2.21,4.83-3.91,6.73-6.16,8.77l30.05-0.01c-0.35-2.04-0.33-3.95,1.89-8.77
					l6.1-13.39l7.96-0.01l2.12,22.18l28.87,0c-1.38-1.94-1.41-4.58-2-7.83L493.78,28.85z M486.34,11.33l-2.81,6.23
					c-1.13,2.47-2.26,2.86-5.6,2.87l-14.58,0l5.53-11.93l14.52-0.01C486.72,8.48,487.51,8.85,486.34,11.33z"/>
				<path class="st0" d="M541.69,10.69c0.87-1.85,1.99-2.22,6.03-2.23l23.98,0.01c4.99,0.01,7,0.66,9.71,1.68L584.75,0l-48.86,0.03
					c-9.1,0-16.15,4.13-19.82,12.12l-5.14,11.4c-3.95,8.5-1.09,11.04,9.15,11.04l21.06-0.01c4,0,4.72,0.39,3.83,2.26l-1.6,3.49
					c-0.83,1.89-1.85,2.21-5.93,2.22l-24.92,0.01c-5.04,0-7.17-0.96-9.27-1.91l-2.5,10.38l46.52-0.01
					c12.41-0.01,18.22-4.51,21.9-12.51l5.7-12.45c3.4-7.41-1.21-10.29-12.22-10.28h-18.31c-4.04,0-4.85-0.3-3.95-2.24L541.69,10.69z
					"/>
			</g>
			<path class="st0" d="M570.23,43.4c2.1,0,3.77,1.71,3.77,3.81c0,2.13-1.67,3.82-3.79,3.82c-2.1,0-3.8-1.69-3.8-3.82
				c0-2.1,1.71-3.81,3.8-3.81H570.23z M570.2,44.16c-1.59,0-2.87,1.37-2.87,3.06c0,1.71,1.28,3.04,2.89,3.04
				c1.61,0.02,2.91-1.34,2.91-3.04c0-1.69-1.3-3.06-2.91-3.06H570.2z M569.55,49.42h-0.9v-4.23c0.34-0.05,0.71-0.12,1.35-0.12
				c0.73,0,1.17,0.12,1.45,0.34c0.24,0.19,0.37,0.47,0.37,0.91c0,0.51-0.35,0.86-0.81,0.98v0.03c0.37,0.07,0.61,0.41,0.68,1.03
				c0.08,0.66,0.17,0.91,0.23,1.05h-0.93c-0.1-0.15-0.17-0.52-0.26-1.1c-0.07-0.45-0.34-0.64-0.79-0.64h-0.41V49.42z M569.55,46.98
				h0.42c0.52,0,0.93-0.17,0.93-0.61c0-0.36-0.25-0.62-0.86-0.62c-0.22,0-0.37,0-0.49,0.01V46.98z"/>
		</g>
	</g>
	<g>
		<path class="st0" d="M14.56,67.49v2.38h-3.91v11.04H7.9V69.86H3.97v-2.38H14.56z"/>
		<path class="st0" d="M23.41,80.91V67.49h2.72v5.12h5.08v-5.12h2.72v13.42h-2.72v-5.99h-5.08v5.99H23.41z"/>
		<path class="st0" d="M53.36,69.86h-6.78v2.85h6.21v2.33h-6.21v3.45h7.1v2.41h-9.77V67.49h9.45V69.86z"/>
		<path class="st0" d="M76.79,68.89c1.05-1.1,2.39-1.66,4.02-1.66c2.18,0,3.77,0.74,4.78,2.22c0.56,0.83,0.85,1.67,0.9,2.5h-2.73
			c-0.17-0.64-0.4-1.13-0.67-1.46c-0.49-0.58-1.21-0.87-2.16-0.87c-0.97,0-1.74,0.41-2.3,1.23c-0.56,0.82-0.84,1.99-0.84,3.49
			s0.3,2.63,0.89,3.38c0.59,0.75,1.35,1.12,2.26,1.12c0.94,0,1.65-0.32,2.14-0.96c0.27-0.35,0.5-0.87,0.68-1.56h2.71
			c-0.23,1.46-0.83,2.65-1.79,3.57s-2.2,1.37-3.7,1.37c-1.86,0-3.33-0.62-4.39-1.86c-1.06-1.24-1.6-2.95-1.6-5.12
			C74.97,71.96,75.58,70.16,76.79,68.89z"/>
		<path class="st0" d="M106.01,79.71c-0.99,1.04-2.42,1.57-4.29,1.57c-1.87,0-3.3-0.52-4.29-1.57c-1.33-1.28-1.99-3.12-1.99-5.53
			c0-2.46,0.66-4.3,1.99-5.53c0.99-1.04,2.42-1.57,4.29-1.57c1.87,0,3.3,0.52,4.29,1.57c1.32,1.23,1.98,3.08,1.98,5.53
			C107.98,76.59,107.32,78.43,106.01,79.71z M104.3,77.67c0.64-0.82,0.95-1.98,0.95-3.5c0-1.5-0.32-2.67-0.95-3.49
			c-0.64-0.82-1.5-1.23-2.58-1.23s-1.95,0.41-2.59,1.23c-0.64,0.82-0.97,1.98-0.97,3.5s0.32,2.68,0.97,3.5
			c0.65,0.82,1.51,1.23,2.59,1.23S103.66,78.49,104.3,77.67z"/>
		<path class="st0" d="M126.02,67.49h3.93v13.42h-2.55v-9.07c0-0.26,0-0.63,0.01-1.1c0.01-0.47,0.01-0.83,0.01-1.09l-2.48,11.26
			h-2.66l-2.46-11.26c0,0.25,0,0.62,0.01,1.09c0.01,0.47,0.01,0.84,0.01,1.1v9.07h-2.55V67.49h3.98l2.38,10.55L126.02,67.49z"/>
		<path class="st0" d="M139.75,67.51h9.33v2.36h-6.61v3.09h5.79v2.33h-5.79v5.62h-2.72V67.51z"/>
		<path class="st0" d="M168.19,79.71c-0.99,1.04-2.42,1.57-4.29,1.57c-1.87,0-3.3-0.52-4.29-1.57c-1.33-1.28-1.99-3.12-1.99-5.53
			c0-2.46,0.66-4.3,1.99-5.53c0.99-1.04,2.42-1.57,4.29-1.57c1.87,0,3.3,0.52,4.29,1.57c1.32,1.23,1.98,3.08,1.98,5.53
			C170.17,76.59,169.51,78.43,168.19,79.71z M166.49,77.67c0.64-0.82,0.95-1.98,0.95-3.5c0-1.5-0.32-2.67-0.95-3.49
			c-0.64-0.82-1.5-1.23-2.58-1.23s-1.95,0.41-2.59,1.23c-0.64,0.82-0.97,1.98-0.97,3.5s0.32,2.68,0.97,3.5
			c0.65,0.82,1.51,1.23,2.59,1.23S165.85,78.49,166.49,77.67z"/>
		<path class="st0" d="M187.91,67.84c0.48,0.21,0.89,0.52,1.22,0.94c0.28,0.34,0.5,0.72,0.66,1.13c0.16,0.41,0.24,0.88,0.24,1.41
			c0,0.64-0.16,1.26-0.47,1.88s-0.83,1.05-1.55,1.31c0.6,0.25,1.03,0.6,1.28,1.06c0.25,0.46,0.38,1.16,0.38,2.1v0.9
			c0,0.61,0.02,1.03,0.07,1.25c0.07,0.35,0.24,0.6,0.5,0.76v0.34h-3.02c-0.08-0.3-0.14-0.54-0.18-0.72
			c-0.07-0.38-0.11-0.76-0.12-1.16l-0.02-1.25c-0.01-0.86-0.16-1.43-0.43-1.71c-0.28-0.29-0.8-0.43-1.56-0.43h-2.67v5.26h-2.67
			V67.49h6.26C186.74,67.51,187.43,67.62,187.91,67.84z M182.26,69.82v3.6h2.94c0.58,0,1.02-0.07,1.31-0.22
			c0.52-0.25,0.78-0.76,0.78-1.51c0-0.81-0.25-1.36-0.75-1.64c-0.28-0.16-0.7-0.24-1.26-0.24H182.26z"/>
		<path class="st0" d="M209.43,67.49v2.38h-3.91v11.04h-2.75V69.86h-3.93v-2.38H209.43z"/>
		<path class="st0" d="M240.12,67.49v2.38h-3.91v11.04h-2.75V69.86h-3.93v-2.38H240.12z"/>
		<path class="st0" d="M258.52,69.86h-6.78v2.85h6.21v2.33h-6.21v3.45h7.1v2.41h-9.77V67.49h9.45V69.86z"/>
		<path class="st0" d="M269.63,68.89c1.05-1.1,2.39-1.66,4.02-1.66c2.18,0,3.77,0.74,4.78,2.22c0.56,0.83,0.85,1.67,0.9,2.5h-2.73
			c-0.17-0.64-0.4-1.13-0.67-1.46c-0.49-0.58-1.21-0.87-2.16-0.87c-0.97,0-1.74,0.41-2.3,1.23c-0.56,0.82-0.84,1.99-0.84,3.49
			s0.3,2.63,0.89,3.38c0.59,0.75,1.35,1.12,2.26,1.12c0.94,0,1.65-0.32,2.14-0.96c0.27-0.35,0.5-0.87,0.68-1.56h2.71
			c-0.23,1.46-0.83,2.65-1.79,3.57s-2.2,1.37-3.7,1.37c-1.86,0-3.33-0.62-4.39-1.86c-1.06-1.24-1.6-2.95-1.6-5.12
			C267.81,71.96,268.42,70.16,269.63,68.89z"/>
		<path class="st0" d="M288.76,80.91V67.49h2.72v5.12h5.08v-5.12h2.72v13.42h-2.72v-5.99h-5.08v5.99H288.76z"/>
		<path class="st0" d="M309.13,67.49h2.87l5.19,9.35v-9.35h2.55v13.42H317l-5.33-9.52v9.52h-2.55V67.49z"/>
		<path class="st0" d="M339.64,79.71c-0.99,1.04-2.42,1.57-4.29,1.57c-1.87,0-3.3-0.52-4.29-1.57c-1.33-1.28-1.99-3.12-1.99-5.53
			c0-2.46,0.66-4.3,1.99-5.53c0.99-1.04,2.42-1.57,4.29-1.57c1.87,0,3.3,0.52,4.29,1.57c1.32,1.23,1.98,3.08,1.98,5.53
			C341.62,76.59,340.96,78.43,339.64,79.71z M337.93,77.67c0.64-0.82,0.95-1.98,0.95-3.5c0-1.5-0.32-2.67-0.95-3.49
			c-0.64-0.82-1.5-1.23-2.58-1.23c-1.08,0-1.95,0.41-2.59,1.23s-0.97,1.98-0.97,3.5s0.32,2.68,0.97,3.5s1.51,1.23,2.59,1.23
			C336.43,78.9,337.29,78.49,337.93,77.67z"/>
		<path class="st0" d="M350.97,67.49h2.73v11h6.53v2.41h-9.26V67.49z"/>
		<path class="st0" d="M379.42,79.71c-0.99,1.04-2.42,1.57-4.29,1.57c-1.87,0-3.3-0.52-4.29-1.57c-1.33-1.28-1.99-3.12-1.99-5.53
			c0-2.46,0.66-4.3,1.99-5.53c0.99-1.04,2.42-1.57,4.29-1.57c1.87,0,3.3,0.52,4.29,1.57c1.32,1.23,1.98,3.08,1.98,5.53
			C381.4,76.59,380.74,78.43,379.42,79.71z M377.71,77.67c0.64-0.82,0.95-1.98,0.95-3.5c0-1.5-0.32-2.67-0.95-3.49
			c-0.64-0.82-1.5-1.23-2.58-1.23c-1.08,0-1.95,0.41-2.59,1.23s-0.97,1.98-0.97,3.5s0.32,2.68,0.97,3.5s1.51,1.23,2.59,1.23
			C376.21,78.9,377.07,78.49,377.71,77.67z"/>
		<path class="st0" d="M399.55,71.68c-0.21-0.92-0.71-1.56-1.52-1.92c-0.45-0.2-0.95-0.3-1.5-0.3c-1.05,0-1.92,0.41-2.6,1.22
			c-0.68,0.81-1.02,2.04-1.02,3.67c0,1.65,0.37,2.81,1.1,3.5c0.73,0.68,1.57,1.03,2.5,1.03c0.92,0,1.67-0.27,2.25-0.81
			c0.58-0.54,0.95-1.25,1.08-2.12h-3.03v-2.24h5.45v7.2h-1.81l-0.27-1.67c-0.53,0.63-1,1.08-1.42,1.34
			c-0.72,0.45-1.61,0.68-2.66,0.68c-1.73,0-3.15-0.62-4.26-1.85c-1.15-1.24-1.73-2.93-1.73-5.08c0-2.17,0.58-3.91,1.75-5.22
			c1.17-1.31,2.71-1.96,4.62-1.96c1.66,0,3,0.43,4.01,1.3c1.01,0.86,1.59,1.94,1.74,3.24H399.55z"/>
		<path class="st0" d="M419.62,67.49h3.1l-4.38,8.39v5.03h-2.73v-5.03l-4.53-8.39h3.22l2.72,5.84L419.62,67.49z"/>
		<path class="st0" d="M445.12,68.89c1.05-1.1,2.39-1.66,4.02-1.66c2.18,0,3.77,0.74,4.78,2.22c0.56,0.83,0.85,1.67,0.9,2.5h-2.73
			c-0.17-0.64-0.4-1.13-0.67-1.46c-0.49-0.58-1.21-0.87-2.17-0.87c-0.97,0-1.74,0.41-2.3,1.23s-0.84,1.99-0.84,3.49
			s0.3,2.63,0.89,3.38c0.59,0.75,1.35,1.12,2.26,1.12c0.94,0,1.65-0.32,2.14-0.96c0.27-0.35,0.5-0.87,0.68-1.56h2.72
			c-0.23,1.46-0.83,2.65-1.79,3.57s-2.2,1.37-3.7,1.37c-1.86,0-3.32-0.62-4.39-1.86c-1.07-1.24-1.6-2.95-1.6-5.12
			C443.3,71.96,443.91,70.16,445.12,68.89z"/>
		<path class="st0" d="M474.34,79.71c-0.99,1.04-2.42,1.57-4.29,1.57c-1.87,0-3.3-0.52-4.29-1.57c-1.33-1.28-1.99-3.12-1.99-5.53
			c0-2.46,0.66-4.3,1.99-5.53c0.99-1.04,2.42-1.57,4.29-1.57c1.87,0,3.3,0.52,4.29,1.57c1.32,1.23,1.98,3.08,1.98,5.53
			C476.32,76.59,475.66,78.43,474.34,79.71z M472.63,77.67c0.64-0.82,0.95-1.98,0.95-3.5c0-1.5-0.32-2.67-0.95-3.49
			c-0.64-0.82-1.5-1.23-2.58-1.23c-1.08,0-1.95,0.41-2.59,1.23s-0.97,1.98-0.97,3.5s0.32,2.68,0.97,3.5s1.51,1.23,2.59,1.23
			C471.13,78.9,471.99,78.49,472.63,77.67z"/>
		<path class="st0" d="M494.35,67.49h3.93v13.42h-2.55v-9.07c0-0.26,0-0.63,0.01-1.1c0.01-0.47,0.01-0.83,0.01-1.09l-2.48,11.26
			h-2.66l-2.46-11.26c0,0.25,0,0.62,0.01,1.09c0.01,0.47,0.01,0.84,0.01,1.1v9.07h-2.55V67.49h3.98l2.38,10.55L494.35,67.49z"/>
		<path class="st0" d="M516.86,75.1c-0.77,0.66-1.86,0.98-3.28,0.98h-2.72v4.82h-2.72V67.49h5.62c1.29,0,2.33,0.35,3.1,1.04
			c0.77,0.69,1.15,1.76,1.15,3.21C518.01,73.32,517.63,74.44,516.86,75.1z M514.78,70.27c-0.35-0.3-0.83-0.45-1.46-0.45h-2.46v3.95
			h2.46c0.62,0,1.11-0.16,1.46-0.48s0.52-0.83,0.52-1.53S515.12,70.56,514.78,70.27z"/>
		<path class="st0" d="M531.22,67.49h3.09l4.63,13.42h-2.96l-0.86-2.76h-4.82l-0.89,2.76h-2.86L531.22,67.49z M531.04,75.84h3.35
			l-1.65-5.28L531.04,75.84z"/>
		<path class="st0" d="M547.82,67.49h2.87l5.19,9.35v-9.35h2.55v13.42h-2.73l-5.33-9.52v9.52h-2.55V67.49z"/>
		<path class="st0" d="M575.73,67.49h3.1l-4.38,8.39v5.03h-2.73v-5.03l-4.53-8.39h3.22l2.72,5.84L575.73,67.49z"/>
	</g>
	<g>
		<path class="st0" d="M11.04,107.63h4v2.68h-4v2.04h3.78v8.67h-3.09v-0.72H7.17v1.27H4.19v-9.22h3.78v-2.04H3.59v-2.68h4.39v-1.9
			H5.68v-2.04c-0.58,0.47-1.13,0.88-1.68,1.27c-0.19-0.69-0.97-2.37-1.41-3.15c2.26-1.35,4.72-3.53,6.07-5.88L11.4,97
			c-0.14,0.22-0.28,0.44-0.41,0.66c1.88,1.35,3.84,3.06,4.89,4.25l-1.82,2.54c-0.25-0.33-0.58-0.69-0.94-1.08v2.35h-2.07V107.63z
			 M12.81,103.05c-0.97-1.02-2.24-2.15-3.42-3.12c-0.91,1.13-1.91,2.18-2.98,3.12H12.81z M11.73,115H7.17v2.62h4.55V115z
			 M28.29,106.44c-0.5,2.21-1.16,4.72-1.71,6.35l-2.62-0.58c0.25-0.83,0.5-1.96,0.75-3.17h-1.77v9.55c0,1.52-0.22,2.35-1.21,2.84
			c-0.91,0.5-2.21,0.53-4,0.53c-0.08-0.88-0.5-2.15-0.86-3.04c1.02,0.05,2.18,0.05,2.54,0.05c0.33-0.03,0.44-0.11,0.44-0.41v-9.52
			h-4.47v-2.96h5.6c-1.27-1.24-3.04-2.59-4.61-3.59l2.18-1.74c0.77,0.47,1.63,1.02,2.46,1.63c0.66-0.69,1.35-1.46,1.93-2.26h-6.87
			v-2.9h9.05l0.63-0.17l1.99,1.44c-1.21,1.9-2.93,3.97-4.72,5.52c0.58,0.44,1.05,0.94,1.41,1.38l-0.8,0.69h2.04l0.47-0.11
			L28.29,106.44z"/>
		<path class="st0" d="M121.1,109.76c-0.33,2.29-0.86,4.28-1.57,5.99c1.68,2.57,4.69,2.9,9.05,2.93c2.95,0,7.45-0.17,10.57-0.47
			c-0.47,0.66-0.91,2.15-1.08,3.04c-2.84,0.19-6.32,0.25-9.55,0.25c-4.97,0-8.14-0.53-10.27-3.23c-0.97,1.6-2.18,2.82-3.51,3.73
			c-0.41-0.63-1.49-1.79-2.12-2.21c2.57-1.52,4.33-4.22,5.24-7.98h-2.35c-0.63,0-1.44,0.19-1.68,0.41
			c-0.17-0.66-0.77-2.07-1.05-2.65c0.44-0.11,0.91-0.33,1.44-0.88c0.52-0.5,1.63-2.02,2.68-3.48h-3.56v-2.62h5.6l0.33-0.14
			l1.99,0.91c-1.02,1.52-2.79,4.06-4.22,5.91h2.02l0.52-0.08L121.1,109.76z M117.65,102.11c-0.75-1.16-2.35-3.06-3.59-4.44
			l2.43-1.49c1.3,1.3,2.84,3.04,3.64,4.11L117.65,102.11z M124.77,100.62h-3.51v-2.54h6.54c-0.25-0.47-0.52-0.91-0.83-1.3l2.57-0.97
			c0.55,0.66,1.1,1.49,1.49,2.26h7.34v2.54h-3.2c-0.36,0.72-0.69,1.35-0.99,1.93h3.67v11.81c0,1.35-0.22,2.07-1.13,2.51
			c-0.88,0.47-2.07,0.5-3.67,0.5c-0.11-0.66-0.41-1.57-0.72-2.29h-3.92v0.88h-2.21V110h2.54v-1.54h-3.26v-1.99h3.26v-1.44h-3.64
			v12.26h-2.95v-14.74h2.84c-0.17-0.61-0.41-1.3-0.72-1.82L124.77,100.62z M131.2,102.55c0.25-0.61,0.5-1.3,0.72-1.93h-4.61
			c0.33,0.66,0.58,1.38,0.69,1.93H131.2z M131.39,111.83h-2.98v1.44h2.98V111.83z M134.82,105.04h-3.73v1.44h3.37v1.99h-3.37V110
			h2.57v4.75h0.75c0.33-0.03,0.41-0.14,0.41-0.44V105.04z"/>
		<path class="st0" d="M232.48,113.79c-0.33-0.77-0.99-1.93-1.66-3.04v11.21h-3.17v-9.94c-0.91,2.12-1.93,4.09-3.01,5.46
			c-0.3-0.94-1.02-2.29-1.52-3.12c1.55-1.77,3.09-4.72,4.08-7.4h-3.73v-3.06h4.17v-3.12c-1.08,0.17-2.1,0.33-3.12,0.44
			c-0.11-0.75-0.52-1.82-0.88-2.54c3.15-0.5,6.6-1.33,8.89-2.26l1.85,2.68c-1.08,0.41-2.29,0.74-3.56,1.02v3.78h3.64v3.06h-3.64
			v0.22c0.8,0.77,3.06,3.37,3.59,4L232.48,113.79z M246.09,114.97v6.96h-3.23v-6.38l-8.34,1.44l-0.52-3.12l8.86-1.52V96.18h3.23
			v15.62l2.73-0.47l0.52,3.06L246.09,114.97z M239.16,111.14c-0.86-1.21-2.79-2.98-4.39-4.22l2.1-1.88c1.57,1.11,3.62,2.82,4.53,4
			L239.16,111.14z M239.88,103.85c-0.77-1.19-2.57-2.96-4.11-4.14l2.15-1.88c1.49,1.13,3.42,2.76,4.25,3.97L239.88,103.85z"/>
		<path class="st0" d="M343.43,110.92c-0.97,0.28-1.96,0.55-2.95,0.8v6.6c0,1.6-0.3,2.38-1.24,2.9c-0.91,0.5-2.24,0.58-4.2,0.58
			c-0.11-0.83-0.52-2.12-0.91-2.98c1.08,0.03,2.21,0.03,2.57,0.03c0.39,0,0.52-0.14,0.52-0.55v-5.69l-2.68,0.66l-0.86-3.12
			c1.02-0.22,2.21-0.47,3.53-0.8v-4.88h-3.17v-3.04h3.17V96.2h3.26v5.22h2.71v3.04h-2.71v4.08l2.54-0.63L343.43,110.92z
			 M358.72,107.19c-1.05,3.81-2.82,6.85-5.16,9.16c1.82,1.27,3.95,2.18,6.4,2.79c-0.69,0.66-1.63,1.99-2.1,2.84
			c-2.68-0.8-4.94-1.96-6.87-3.48c-2.15,1.49-4.58,2.6-7.29,3.4c-0.36-0.88-1.13-2.26-1.74-2.98c2.43-0.58,4.67-1.46,6.6-2.71
			c-1.6-1.85-2.9-4.03-3.92-6.57l0.83-0.25h-1.44v-2.95h5.44v-3.31h-5.93v-3.04h5.93v-3.95h3.26v3.95h6.18v3.04h-6.18v3.31h3.31
			l0.58-0.14L358.72,107.19z M347.84,109.4c0.77,1.82,1.88,3.48,3.26,4.89c1.44-1.35,2.65-3.01,3.48-4.89H347.84z"/>
		<path class="st0" d="M455.12,97.97c-2.01,4.53-5.25,9.22-8.23,12.09c-0.63-0.72-2.1-2.15-2.93-2.82
			c2.93-2.46,5.82-6.46,7.48-10.46L455.12,97.97z M462.85,110.64c2.24,3.04,4.78,6.96,6.13,9.52l-3.39,1.79
			c-0.36-0.77-0.86-1.71-1.44-2.71c-13.33,1.05-15.21,1.21-16.56,1.74c-0.22-0.72-0.86-2.54-1.35-3.53
			c0.94-0.25,1.66-0.99,2.73-2.21c1.19-1.19,4.64-5.91,6.82-10.46l3.84,1.63c-2.12,3.73-4.78,7.4-7.45,10.38l10.13-0.66
			c-0.88-1.38-1.79-2.82-2.65-4.03L462.85,110.64z M463.37,96.84c1.19,3.87,3.73,7.76,7.09,9.83c-0.75,0.72-1.93,2.29-2.48,3.31
			c-3.15-2.4-5.6-6.1-7.15-9.74h-4.42v-3.39H463.37z"/>
		<path class="st0" d="M578.56,117.79c0,1.88-0.33,2.87-1.52,3.45c-1.13,0.58-2.9,0.66-5.36,0.63c-0.11-0.96-0.61-2.59-1.08-3.56
			c1.55,0.11,3.37,0.08,3.89,0.06c0.5,0,0.69-0.14,0.69-0.61v-16.81h-19.27v-3.12h22.63V117.79z M572.44,105.78h-16.23v-2.87h16.23
			V105.78z M560.82,117.16v1.99h-3.2v-11.32H571v9.33H560.82z M560.82,110.64v3.7h6.96v-3.7H560.82z"/>
	</g>
</g>
<g>
	<path class="st0" d="M10.97,170.98c-1.23,1.22-2.71,1.83-4.43,1.83c-1.78,0-3.28-0.62-4.5-1.88c-1.22-1.25-1.83-2.79-1.83-4.61
		c0-1.89,0.66-3.47,1.97-4.72c1.23-1.17,2.69-1.76,4.35-1.76c1.74,0,3.23,0.63,4.47,1.9c1.24,1.27,1.85,2.79,1.85,4.58
		C12.87,168.17,12.24,169.72,10.97,170.98z M2.83,162.57c-1.01,1.06-1.51,2.31-1.51,3.76c0,1.5,0.51,2.78,1.54,3.83
		c1.02,1.05,2.25,1.58,3.69,1.58c1.44,0,2.66-0.53,3.68-1.58c1.02-1.06,1.53-2.33,1.53-3.82c0-1.44-0.51-2.7-1.52-3.76
		c-1.02-1.08-2.25-1.62-3.69-1.62C5.09,160.95,3.85,161.49,2.83,162.57z M8.57,169.56c-0.6,0.41-1.23,0.61-1.87,0.61
		c-0.96,0-1.79-0.35-2.49-1.05c-0.7-0.71-1.05-1.63-1.05-2.77c0-1.07,0.3-1.98,0.91-2.73c0.6-0.75,1.43-1.12,2.48-1.12
		c0.67,0,1.25,0.14,1.74,0.42c0.8,0.46,1.3,1.26,1.49,2.41l-1.61-0.03c-0.1-0.53-0.3-0.89-0.62-1.07c-0.26-0.17-0.55-0.26-0.87-0.26
		c-0.47,0-0.86,0.2-1.17,0.6c-0.3,0.4-0.45,1.01-0.45,1.81c0,0.8,0.17,1.38,0.5,1.75c0.33,0.36,0.74,0.54,1.21,0.54
		c0.43,0,0.75-0.12,0.97-0.36s0.36-0.54,0.42-0.91h1.57C9.56,168.43,9.18,169.15,8.57,169.56z"/>
	<path class="st0" d="M20.71,170.3c0.35-0.85,1.17-1.75,2.47-2.7c1.13-0.83,1.86-1.42,2.19-1.78c0.51-0.56,0.76-1.17,0.76-1.83
		c0-0.54-0.15-0.99-0.44-1.35s-0.71-0.54-1.25-0.54c-0.74,0-1.25,0.29-1.52,0.85c-0.15,0.33-0.25,0.85-0.27,1.57h-2.38
		c0.04-1.09,0.23-1.96,0.58-2.63c0.65-1.27,1.81-1.91,3.48-1.91c1.32,0,2.36,0.38,3.14,1.12c0.78,0.75,1.17,1.74,1.17,2.97
		c0,0.95-0.27,1.78-0.83,2.52c-0.36,0.49-0.95,1.03-1.78,1.63l-0.98,0.71c-0.61,0.45-1.03,0.77-1.26,0.97
		c-0.23,0.2-0.42,0.43-0.57,0.7h5.43v2.21h-8.52C20.15,171.89,20.35,171.06,20.71,170.3z"/>
	<path class="st0" d="M38.4,161.68c0.64,1.14,0.96,2.77,0.96,4.88s-0.32,3.73-0.96,4.87s-1.75,1.71-3.33,1.71
		c-1.58,0-2.7-0.57-3.33-1.71s-0.96-2.76-0.96-4.87s0.32-3.73,0.96-4.88c0.64-1.14,1.75-1.71,3.33-1.71
		C36.65,159.96,37.77,160.54,38.4,161.68z M33.63,169.92c0.23,0.78,0.71,1.17,1.44,1.17c0.73,0,1.2-0.39,1.43-1.17
		s0.34-1.9,0.34-3.37c0-1.54-0.11-2.68-0.34-3.41s-0.7-1.11-1.43-1.11c-0.73,0-1.21,0.37-1.44,1.11s-0.35,1.88-0.35,3.41
		C33.28,168.02,33.4,169.14,33.63,169.92z"/>
	<path class="st0" d="M42.01,170.3c0.35-0.85,1.17-1.75,2.47-2.7c1.13-0.83,1.86-1.42,2.19-1.78c0.51-0.56,0.76-1.17,0.76-1.83
		c0-0.54-0.15-0.99-0.44-1.35s-0.71-0.54-1.25-0.54c-0.74,0-1.25,0.29-1.52,0.85c-0.15,0.33-0.25,0.85-0.27,1.57h-2.38
		c0.04-1.09,0.23-1.96,0.58-2.63c0.65-1.27,1.81-1.91,3.48-1.91c1.32,0,2.36,0.38,3.14,1.12c0.78,0.75,1.17,1.74,1.17,2.97
		c0,0.95-0.27,1.78-0.83,2.52c-0.36,0.49-0.95,1.03-1.78,1.63l-0.98,0.71c-0.61,0.45-1.03,0.77-1.26,0.97
		c-0.23,0.2-0.42,0.43-0.57,0.7h5.43v2.21h-8.52C41.45,171.89,41.65,171.06,42.01,170.3z"/>
	<path class="st0" d="M52.65,170.3c0.35-0.85,1.17-1.75,2.47-2.7c1.13-0.83,1.86-1.42,2.19-1.78c0.51-0.56,0.76-1.17,0.76-1.83
		c0-0.54-0.15-0.99-0.44-1.35s-0.71-0.54-1.25-0.54c-0.74,0-1.25,0.29-1.52,0.85c-0.15,0.33-0.25,0.85-0.27,1.57h-2.38
		c0.04-1.09,0.23-1.96,0.58-2.63c0.65-1.27,1.81-1.91,3.48-1.91c1.32,0,2.36,0.38,3.14,1.12c0.78,0.75,1.17,1.74,1.17,2.97
		c0,0.95-0.27,1.78-0.83,2.52c-0.36,0.49-0.95,1.03-1.78,1.63L57,168.94c-0.61,0.45-1.03,0.77-1.26,0.97
		c-0.23,0.2-0.42,0.43-0.57,0.7h5.43v2.21h-8.52C52.1,171.89,52.29,171.06,52.65,170.3z"/>
	<path class="st0" d="M71.18,168.81c0.08,0.59,0.24,1.04,0.48,1.33c0.44,0.54,1.19,0.8,2.25,0.8c0.64,0,1.15-0.07,1.55-0.21
		c0.75-0.27,1.13-0.77,1.13-1.5c0-0.43-0.18-0.76-0.55-0.99c-0.37-0.23-0.95-0.43-1.76-0.61l-1.37-0.31
		c-1.35-0.3-2.27-0.64-2.77-0.99c-0.85-0.6-1.28-1.53-1.28-2.81c0-1.16,0.42-2.12,1.25-2.89c0.83-0.77,2.06-1.15,3.67-1.15
		c1.35,0,2.5,0.36,3.45,1.09s1.45,1.78,1.5,3.15H76.2c-0.05-0.78-0.39-1.33-1.02-1.66c-0.42-0.22-0.95-0.33-1.57-0.33
		c-0.7,0-1.25,0.14-1.67,0.42c-0.42,0.28-0.62,0.68-0.62,1.18c0,0.46,0.21,0.81,0.62,1.04c0.26,0.15,0.82,0.33,1.68,0.54l2.22,0.54
		c0.97,0.23,1.7,0.55,2.19,0.94c0.75,0.61,1.13,1.49,1.13,2.65c0,1.19-0.45,2.17-1.34,2.95c-0.89,0.78-2.15,1.17-3.78,1.17
		c-1.67,0-2.97-0.39-3.93-1.16c-0.95-0.77-1.43-1.83-1.43-3.18H71.18z"/>
	<path class="st0" d="M93.11,169.02c-0.22,0.74-0.55,1.36-0.98,1.85l1.45,1.4l-1.38,1.47l-1.52-1.48c-0.46,0.29-0.86,0.49-1.2,0.61
		c-0.57,0.2-1.24,0.29-2.03,0.29c-1.65,0-3.01-0.5-4.09-1.51c-1.31-1.21-1.96-3-1.96-5.35c0-2.37,0.67-4.16,2.01-5.38
		c1.09-0.99,2.45-1.49,4.07-1.49c1.64,0,3.01,0.53,4.12,1.57c1.28,1.21,1.92,2.91,1.92,5.1C93.52,167.27,93.39,168.24,93.11,169.02z
		 M88.32,170.76c0.15-0.04,0.35-0.12,0.59-0.22l-1.28-1.25l1.36-1.45l1.29,1.24c0.2-0.42,0.34-0.79,0.42-1.11
		c0.13-0.48,0.19-1.03,0.19-1.66c0-1.45-0.29-2.58-0.87-3.37c-0.58-0.79-1.43-1.19-2.54-1.19c-1.05,0-1.88,0.38-2.51,1.14
		c-0.62,0.76-0.94,1.9-0.94,3.42c0,1.78,0.45,3.05,1.34,3.82c0.58,0.5,1.27,0.75,2.08,0.75C87.75,170.87,88.04,170.84,88.32,170.76z
		"/>
	<path class="st0" d="M96.42,159.84h2.69v7.96c0,0.89,0.1,1.54,0.31,1.95c0.32,0.73,1.01,1.09,2.09,1.09c1.07,0,1.76-0.36,2.08-1.09
		c0.21-0.41,0.31-1.06,0.31-1.95v-7.96h2.69v7.97c0,1.38-0.21,2.45-0.63,3.22c-0.78,1.41-2.26,2.11-4.44,2.11
		c-2.19,0-3.67-0.7-4.45-2.11c-0.42-0.77-0.62-1.84-0.62-3.22V159.84z"/>
	<path class="st0" d="M113.6,159.84h2.99l4.47,12.97h-2.87l-0.83-2.67h-4.66l-0.86,2.67h-2.76L113.6,159.84z M113.43,167.91h3.24
		l-1.6-5.1L113.43,167.91z"/>
	<path class="st0" d="M131.65,160.17c0.47,0.21,0.86,0.51,1.18,0.91c0.27,0.33,0.48,0.69,0.64,1.09c0.16,0.4,0.23,0.85,0.23,1.37
		c0,0.62-0.15,1.22-0.45,1.82s-0.8,1.02-1.5,1.26c0.58,0.24,1,0.58,1.24,1.03s0.36,1.12,0.36,2.03v0.87c0,0.59,0.02,0.99,0.07,1.21
		c0.07,0.33,0.23,0.58,0.49,0.74v0.33H131c-0.08-0.29-0.14-0.52-0.17-0.7c-0.07-0.36-0.11-0.74-0.11-1.12l-0.02-1.21
		c-0.01-0.83-0.15-1.38-0.42-1.65c-0.27-0.28-0.77-0.41-1.51-0.41h-2.58v5.09h-2.58v-12.97h6.05
		C130.52,159.86,131.19,159.97,131.65,160.17z M126.19,162.09v3.48h2.84c0.56,0,0.99-0.07,1.27-0.21c0.5-0.25,0.75-0.73,0.75-1.46
		c0-0.79-0.24-1.31-0.73-1.58c-0.27-0.15-0.68-0.23-1.22-0.23H126.19z"/>
	<path class="st0" d="M146.33,162.14h-6.55v2.75h6v2.25h-6v3.33h6.86v2.33h-9.44v-12.97h9.14V162.14z"/>
	<path class="st0" d="M151.62,168.81c0.08,0.59,0.24,1.04,0.48,1.33c0.44,0.54,1.19,0.8,2.25,0.8c0.64,0,1.15-0.07,1.55-0.21
		c0.75-0.27,1.13-0.77,1.13-1.5c0-0.43-0.18-0.76-0.55-0.99c-0.37-0.23-0.95-0.43-1.76-0.61l-1.37-0.31
		c-1.35-0.3-2.27-0.64-2.77-0.99c-0.85-0.6-1.28-1.53-1.28-2.81c0-1.16,0.42-2.12,1.25-2.89c0.83-0.77,2.06-1.15,3.67-1.15
		c1.35,0,2.5,0.36,3.45,1.09s1.45,1.78,1.5,3.15h-2.54c-0.05-0.78-0.39-1.33-1.02-1.66c-0.42-0.22-0.95-0.33-1.57-0.33
		c-0.7,0-1.25,0.14-1.67,0.42c-0.42,0.28-0.62,0.68-0.62,1.18c0,0.46,0.21,0.81,0.62,1.04c0.26,0.15,0.82,0.33,1.68,0.54l2.22,0.54
		c0.97,0.23,1.7,0.55,2.19,0.94c0.75,0.61,1.13,1.49,1.13,2.65c0,1.19-0.45,2.17-1.34,2.95c-0.89,0.78-2.15,1.17-3.78,1.17
		c-1.67,0-2.97-0.39-3.93-1.16c-0.95-0.77-1.43-1.83-1.43-3.18H151.62z"/>
	<path class="st0" d="M176.46,159.84h3.8v12.97h-2.46v-8.77c0-0.25,0-0.61,0.01-1.06c0.01-0.46,0.01-0.81,0.01-1.05l-2.4,10.88
		h-2.57l-2.38-10.88c0,0.25,0,0.6,0.01,1.05c0.01,0.45,0.01,0.81,0.01,1.06v8.77h-2.46v-12.97h3.84l2.3,10.2L176.46,159.84z"/>
	<path class="st0" d="M187.2,159.84h2.99l4.47,12.97h-2.87l-0.83-2.67h-4.66l-0.86,2.67h-2.76L187.2,159.84z M187.02,167.91h3.24
		l-1.6-5.1L187.02,167.91z"/>
	<path class="st0" d="M205.25,160.17c0.47,0.21,0.86,0.51,1.18,0.91c0.27,0.33,0.48,0.69,0.64,1.09c0.16,0.4,0.23,0.85,0.23,1.37
		c0,0.62-0.15,1.22-0.45,1.82s-0.8,1.02-1.5,1.26c0.58,0.24,1,0.58,1.24,1.03s0.36,1.12,0.36,2.03v0.87c0,0.59,0.02,0.99,0.07,1.21
		c0.07,0.33,0.23,0.58,0.49,0.74v0.33h-2.92c-0.08-0.29-0.14-0.52-0.17-0.7c-0.07-0.36-0.11-0.74-0.11-1.12l-0.02-1.21
		c-0.01-0.83-0.15-1.38-0.42-1.65c-0.27-0.28-0.77-0.41-1.51-0.41h-2.58v5.09h-2.58v-12.97h6.05
		C204.12,159.86,204.79,159.97,205.25,160.17z M199.79,162.09v3.48h2.84c0.56,0,0.99-0.07,1.27-0.21c0.5-0.25,0.75-0.73,0.75-1.46
		c0-0.79-0.24-1.31-0.73-1.58c-0.27-0.15-0.68-0.23-1.22-0.23H199.79z"/>
	<path class="st0" d="M210.76,159.84h2.6v5.34l4.89-5.34h3.41l-5.19,5.33l5.46,7.63h-3.4l-3.9-5.66l-1.27,1.32v4.34h-2.6V159.84z"/>
	<path class="st0" d="M233.49,162.14h-6.55v2.75h6v2.25h-6v3.33h6.86v2.33h-9.44v-12.97h9.14V162.14z"/>
	<path class="st0" d="M246.07,159.84v2.29h-3.78v10.67h-2.66v-10.67h-3.8v-2.29H246.07z"/>
	<path class="st0" d="M250.9,172.81h-2.62v-12.97h2.62V172.81z"/>
	<path class="st0" d="M254.2,159.84h2.77l5.02,9.04v-9.04h2.46v12.97h-2.64l-5.15-9.2v9.2h-2.46V159.84z"/>
	<path class="st0" d="M276.31,163.89c-0.2-0.89-0.69-1.5-1.47-1.86c-0.43-0.19-0.92-0.29-1.45-0.29c-1.02,0-1.85,0.39-2.51,1.18
		c-0.65,0.79-0.98,1.97-0.98,3.55c0,1.59,0.35,2.72,1.06,3.38s1.52,0.99,2.42,0.99c0.89,0,1.61-0.26,2.18-0.78
		c0.57-0.52,0.92-1.21,1.05-2.05h-2.93v-2.17h5.27v6.96h-1.75l-0.27-1.62c-0.51,0.61-0.97,1.04-1.37,1.3
		c-0.7,0.44-1.56,0.66-2.57,0.66c-1.68,0-3.05-0.6-4.12-1.79c-1.12-1.2-1.67-2.83-1.67-4.91c0-2.1,0.56-3.78,1.69-5.05
		c1.13-1.27,2.62-1.9,4.47-1.9c1.61,0,2.9,0.42,3.87,1.25s1.53,1.88,1.68,3.13H276.31z"/>
	<path class="st0" d="M289.33,161.19c1.02-1.07,2.31-1.6,3.89-1.6c2.11,0,3.64,0.71,4.62,2.15c0.54,0.8,0.83,1.61,0.87,2.42h-2.64
		c-0.17-0.62-0.38-1.09-0.65-1.41c-0.47-0.56-1.17-0.85-2.09-0.85c-0.94,0-1.69,0.4-2.23,1.19s-0.81,1.92-0.81,3.37
		c0,1.46,0.29,2.54,0.86,3.27c0.57,0.72,1.3,1.09,2.19,1.09c0.91,0,1.6-0.31,2.07-0.93c0.26-0.34,0.48-0.84,0.65-1.51h2.62
		c-0.23,1.41-0.8,2.56-1.74,3.45c-0.93,0.89-2.12,1.33-3.58,1.33c-1.8,0-3.21-0.6-4.24-1.79c-1.03-1.2-1.54-2.85-1.54-4.94
		C287.57,164.17,288.15,162.42,289.33,161.19z"/>
	<path class="st0" d="M311.42,171.66c-0.96,1.01-2.34,1.51-4.14,1.51c-1.81,0-3.19-0.5-4.14-1.51c-1.28-1.24-1.92-3.02-1.92-5.35
		c0-2.38,0.64-4.16,1.92-5.35c0.96-1.01,2.34-1.51,4.14-1.51c1.81,0,3.19,0.5,4.14,1.51c1.27,1.19,1.91,2.97,1.91,5.35
		C313.33,168.64,312.69,170.42,311.42,171.66z M309.77,169.69c0.61-0.79,0.92-1.92,0.92-3.38c0-1.46-0.31-2.58-0.92-3.38
		c-0.62-0.79-1.45-1.19-2.49-1.19c-1.05,0-1.88,0.39-2.5,1.19c-0.62,0.79-0.94,1.92-0.94,3.38c0,1.46,0.31,2.59,0.94,3.38
		c0.62,0.79,1.46,1.19,2.5,1.19C308.32,170.87,309.15,170.48,309.77,169.69z"/>
	<path class="st0" d="M324.33,160.17c0.47,0.21,0.86,0.51,1.18,0.91c0.27,0.33,0.48,0.69,0.64,1.09c0.16,0.4,0.23,0.85,0.23,1.37
		c0,0.62-0.15,1.22-0.46,1.82c-0.3,0.6-0.8,1.02-1.5,1.26c0.58,0.24,1,0.58,1.24,1.03c0.24,0.44,0.36,1.12,0.36,2.03v0.87
		c0,0.59,0.02,0.99,0.07,1.21c0.07,0.33,0.23,0.58,0.49,0.74v0.33h-2.92c-0.08-0.29-0.14-0.52-0.17-0.7
		c-0.07-0.36-0.11-0.74-0.11-1.12l-0.02-1.21c-0.01-0.83-0.15-1.38-0.42-1.65s-0.77-0.41-1.51-0.41h-2.58v5.09h-2.58v-12.97h6.05
		C323.2,159.86,323.86,159.97,324.33,160.17z M318.87,162.09v3.48h2.84c0.56,0,0.99-0.07,1.27-0.21c0.5-0.25,0.75-0.73,0.75-1.46
		c0-0.79-0.24-1.31-0.73-1.58c-0.27-0.15-0.68-0.23-1.22-0.23H318.87z"/>
	<path class="st0" d="M338.28,167.2c-0.74,0.63-1.8,0.95-3.17,0.95h-2.63v4.66h-2.62v-12.97h5.43c1.25,0,2.25,0.33,2.99,1
		c0.74,0.67,1.12,1.71,1.12,3.11C339.39,165.48,339.02,166.56,338.28,167.2z M336.26,162.52c-0.33-0.29-0.8-0.43-1.41-0.43h-2.38
		v3.82h2.38c0.6,0,1.07-0.16,1.41-0.47s0.5-0.8,0.5-1.48C336.77,163.29,336.6,162.81,336.26,162.52z"/>
	<path class="st0" d="M342.15,170.18h2.6v2.63h-2.6V170.18z"/>
	<path class="st0" d="M357.52,159.84h2.99l4.47,12.97h-2.87l-0.83-2.67h-4.66l-0.86,2.67h-2.76L357.52,159.84z M357.35,167.91h3.24
		l-1.6-5.1L357.35,167.91z"/>
	<path class="st0" d="M367.47,159.84h2.64v10.64h6.31v2.33h-8.96V159.84z"/>
	<path class="st0" d="M379.08,159.84h2.64v10.64h6.31v2.33h-8.96V159.84z"/>
	<path class="st0" d="M404.56,160.17c0.46,0.21,0.86,0.51,1.18,0.91c0.27,0.33,0.48,0.69,0.63,1.09c0.16,0.4,0.23,0.85,0.23,1.37
		c0,0.62-0.15,1.22-0.46,1.82c-0.3,0.6-0.8,1.02-1.5,1.26c0.58,0.24,1,0.58,1.24,1.03c0.24,0.44,0.36,1.12,0.36,2.03v0.87
		c0,0.59,0.02,0.99,0.07,1.21c0.07,0.33,0.23,0.58,0.49,0.74v0.33h-2.92c-0.08-0.29-0.14-0.52-0.17-0.7
		c-0.07-0.36-0.11-0.74-0.11-1.12l-0.02-1.21c-0.01-0.83-0.15-1.38-0.42-1.65s-0.77-0.41-1.51-0.41h-2.58v5.09h-2.58v-12.97h6.05
		C403.43,159.86,404.09,159.97,404.56,160.17z M399.1,162.09v3.48h2.84c0.56,0,0.99-0.07,1.27-0.21c0.5-0.25,0.75-0.73,0.75-1.46
		c0-0.79-0.24-1.31-0.72-1.58c-0.27-0.15-0.68-0.23-1.22-0.23H399.1z"/>
	<path class="st0" d="M412.43,172.81h-2.62v-12.97h2.62V172.81z"/>
	<path class="st0" d="M424.28,163.89c-0.2-0.89-0.69-1.5-1.47-1.86c-0.44-0.19-0.92-0.29-1.45-0.29c-1.02,0-1.86,0.39-2.51,1.18
		c-0.65,0.79-0.98,1.97-0.98,3.55c0,1.59,0.36,2.72,1.06,3.38s1.52,0.99,2.42,0.99c0.89,0,1.61-0.26,2.18-0.78
		c0.57-0.52,0.91-1.21,1.05-2.05h-2.93v-2.17h5.27v6.96h-1.75l-0.27-1.62c-0.51,0.61-0.97,1.04-1.37,1.3
		c-0.7,0.44-1.56,0.66-2.57,0.66c-1.68,0-3.05-0.6-4.12-1.79c-1.12-1.2-1.67-2.83-1.67-4.91c0-2.1,0.56-3.78,1.69-5.05
		s2.62-1.9,4.47-1.9c1.61,0,2.9,0.42,3.87,1.25s1.54,1.88,1.68,3.13H424.28z"/>
	<path class="st0" d="M430.31,172.81v-12.97h2.62v4.94h4.92v-4.94h2.62v12.97h-2.62v-5.79h-4.92v5.79H430.31z"/>
	<path class="st0" d="M453.08,159.84v2.29h-3.78v10.67h-2.66v-10.67h-3.8v-2.29H453.08z"/>
	<path class="st0" d="M457.4,168.81c0.08,0.59,0.24,1.04,0.48,1.33c0.44,0.54,1.19,0.8,2.25,0.8c0.64,0,1.15-0.07,1.55-0.21
		c0.75-0.27,1.13-0.77,1.13-1.5c0-0.43-0.19-0.76-0.55-0.99c-0.37-0.23-0.96-0.43-1.76-0.61l-1.37-0.31
		c-1.35-0.3-2.27-0.64-2.77-0.99c-0.85-0.6-1.28-1.53-1.28-2.81c0-1.16,0.42-2.12,1.25-2.89c0.83-0.77,2.06-1.15,3.67-1.15
		c1.35,0,2.5,0.36,3.45,1.09s1.45,1.78,1.5,3.15h-2.54c-0.05-0.78-0.39-1.33-1.02-1.66c-0.42-0.22-0.95-0.33-1.57-0.33
		c-0.7,0-1.26,0.14-1.67,0.42c-0.42,0.28-0.62,0.68-0.62,1.18c0,0.46,0.21,0.81,0.62,1.04c0.26,0.15,0.82,0.33,1.68,0.54l2.22,0.54
		c0.97,0.23,1.7,0.55,2.19,0.94c0.75,0.61,1.13,1.49,1.13,2.65c0,1.19-0.45,2.17-1.34,2.95c-0.89,0.78-2.16,1.17-3.79,1.17
		c-1.67,0-2.97-0.39-3.93-1.16c-0.96-0.77-1.43-1.83-1.43-3.18H457.4z"/>
	<path class="st0" d="M481.96,160.17c0.46,0.21,0.86,0.51,1.18,0.91c0.27,0.33,0.48,0.69,0.63,1.09c0.16,0.4,0.23,0.85,0.23,1.37
		c0,0.62-0.15,1.22-0.46,1.82c-0.3,0.6-0.8,1.02-1.5,1.26c0.58,0.24,1,0.58,1.24,1.03c0.24,0.44,0.36,1.12,0.36,2.03v0.87
		c0,0.59,0.02,0.99,0.07,1.21c0.07,0.33,0.23,0.58,0.49,0.74v0.33h-2.92c-0.08-0.29-0.14-0.52-0.17-0.7
		c-0.07-0.36-0.11-0.74-0.11-1.12l-0.02-1.21c-0.01-0.83-0.15-1.38-0.42-1.65s-0.77-0.41-1.51-0.41h-2.58v5.09h-2.58v-12.97h6.05
		C480.83,159.86,481.49,159.97,481.96,160.17z M476.5,162.09v3.48h2.84c0.56,0,0.99-0.07,1.27-0.21c0.5-0.25,0.75-0.73,0.75-1.46
		c0-0.79-0.24-1.31-0.72-1.58c-0.27-0.15-0.68-0.23-1.22-0.23H476.5z"/>
	<path class="st0" d="M496.64,162.14h-6.55v2.75h6.01v2.25h-6.01v3.33h6.86v2.33h-9.45v-12.97h9.14V162.14z"/>
	<path class="st0" d="M501.92,168.81c0.08,0.59,0.24,1.04,0.48,1.33c0.44,0.54,1.19,0.8,2.25,0.8c0.64,0,1.15-0.07,1.55-0.21
		c0.75-0.27,1.13-0.77,1.13-1.5c0-0.43-0.18-0.76-0.55-0.99c-0.37-0.23-0.96-0.43-1.76-0.61l-1.37-0.31
		c-1.35-0.3-2.27-0.64-2.77-0.99c-0.85-0.6-1.28-1.53-1.28-2.81c0-1.16,0.42-2.12,1.25-2.89c0.83-0.77,2.06-1.15,3.67-1.15
		c1.35,0,2.5,0.36,3.45,1.09c0.95,0.72,1.45,1.78,1.5,3.15h-2.54c-0.05-0.78-0.39-1.33-1.02-1.66c-0.42-0.22-0.95-0.33-1.57-0.33
		c-0.7,0-1.25,0.14-1.67,0.42c-0.42,0.28-0.62,0.68-0.62,1.18c0,0.46,0.21,0.81,0.62,1.04c0.26,0.15,0.82,0.33,1.68,0.54l2.22,0.54
		c0.97,0.23,1.7,0.55,2.19,0.94c0.75,0.61,1.13,1.49,1.13,2.65c0,1.19-0.45,2.17-1.34,2.95c-0.89,0.78-2.15,1.17-3.79,1.17
		c-1.66,0-2.97-0.39-3.93-1.16c-0.95-0.77-1.43-1.83-1.43-3.18H501.92z"/>
	<path class="st0" d="M521.83,162.14h-6.55v2.75h6.01v2.25h-6.01v3.33h6.86v2.33h-9.45v-12.97h9.14V162.14z"/>
	<path class="st0" d="M533.32,160.17c0.46,0.21,0.86,0.51,1.18,0.91c0.27,0.33,0.48,0.69,0.63,1.09c0.16,0.4,0.23,0.85,0.23,1.37
		c0,0.62-0.15,1.22-0.46,1.82c-0.3,0.6-0.8,1.02-1.5,1.26c0.58,0.24,1,0.58,1.24,1.03c0.24,0.44,0.36,1.12,0.36,2.03v0.87
		c0,0.59,0.02,0.99,0.07,1.21c0.07,0.33,0.23,0.58,0.49,0.74v0.33h-2.92c-0.08-0.29-0.14-0.52-0.17-0.7
		c-0.07-0.36-0.11-0.74-0.11-1.12l-0.02-1.21c-0.01-0.83-0.15-1.38-0.42-1.65s-0.77-0.41-1.51-0.41h-2.58v5.09h-2.58v-12.97h6.05
		C532.19,159.86,532.85,159.97,533.32,160.17z M527.85,162.09v3.48h2.84c0.56,0,0.99-0.07,1.27-0.21c0.5-0.25,0.75-0.73,0.75-1.46
		c0-0.79-0.24-1.31-0.72-1.58c-0.27-0.15-0.68-0.23-1.22-0.23H527.85z"/>
	<path class="st0" d="M546.18,159.84h2.75l-4.31,12.97h-2.5l-4.28-12.97h2.82l2.75,9.85L546.18,159.84z"/>
	<path class="st0" d="M560.59,162.14h-6.55v2.75h6.01v2.25h-6.01v3.33h6.86v2.33h-9.45v-12.97h9.14V162.14z"/>
	<path class="st0" d="M571.38,160.12c0.89,0.3,1.61,0.85,2.16,1.64c0.44,0.65,0.74,1.34,0.9,2.09c0.16,0.75,0.24,1.47,0.24,2.15
		c0,1.72-0.34,3.18-1.01,4.38c-0.92,1.61-2.33,2.42-4.24,2.42h-5.45v-12.97h5.45C570.21,159.85,570.86,159.95,571.38,160.12z
		 M566.54,162.09v8.46h2.44c1.25,0,2.12-0.63,2.61-1.89c0.27-0.69,0.4-1.52,0.4-2.47c0-1.32-0.2-2.33-0.61-3.04
		c-0.4-0.71-1.21-1.06-2.41-1.06H566.54z"/>
	<path class="st0" d="M577.3,170.18h2.6v2.63h-2.6V170.18z"/>
</g>
</svg>
