<?xml version="1.0" encoding="UTF-8"?>
<svg xmlns="http://www.w3.org/2000/svg" version="1.1" viewBox="0 0 200.35 45.83">
  <!-- Generator: Adobe Illustrator 29.8.4, SVG Export Plug-In . SVG Version: 2.1.1 Build 6)  -->
  <defs>
    <style>
      .st0 {
        fill: #fff;
      }

      .st1 {
        fill: #427aa1;
      }

      .st2 {
        isolation: isolate;
      }

      .st3 {
        fill: #a5be00;
        mix-blend-mode: soft-light;
      }
    </style>
  </defs>
  <g class="st2">
    <g id="_圖層_1" data-name="圖層_1">
      <g>
        <path class="st1" d="M53.26,1.51l-22.97,39.79c-1.16,2.01.29,4.53,2.62,4.53h45.95c2.33,0,3.78-2.52,2.62-4.53L58.5,1.51c-1.16-2.01-4.07-2.01-5.23,0Z"/>
        <path class="st3" d="M23.68,1.51L.71,41.3c-1.16,2.01.29,4.53,2.62,4.53h45.95c2.33,0,3.78-2.52,2.62-4.53L28.91,1.51c-1.16-2.01-4.07-2.01-5.23,0Z"/>
        <g>
          <path class="st0" d="M100.11,14.52h-9.95v-5.33h16.69v4.92l-10.85,21.98h11.01v5.33h-17.59v-4.74l10.68-22.16Z"/>
          <path class="st0" d="M123.91,9.2l7.68,32.22h-6.09l-1.34-6.81h-7.72l-1.34,6.81h-6.09l7.68-32.22h7.23ZM123.14,29.28l-2.8-14.49h-.08l-2.8,14.49h5.69Z"/>
          <path class="st0" d="M140.48,9.2v12.32h6.82v-12.32h5.85v32.22h-5.85v-14.31h-6.82v14.31h-5.85V9.2h5.85Z"/>
          <path class="st0" d="M171.11,9.2l7.68,32.22h-6.09l-1.34-6.81h-7.72l-1.34,6.81h-6.09l7.68-32.22h7.23ZM170.34,29.28l-2.8-14.49h-.08l-2.8,14.49h5.69Z"/>
          <path class="st0" d="M187.68,9.2v12.32h6.82v-12.32h5.85v32.22h-5.85v-14.31h-6.82v14.31h-5.85V9.2h5.85Z"/>
        </g>
      </g>
    </g>
  </g>
</svg>