<?xml version="1.0" encoding="UTF-8"?>
<svg id="_圖層_1" data-name="圖層 1" xmlns="http://www.w3.org/2000/svg" viewBox="0 0 798.72 155.67">
  <defs>
    <style>
      .cls-1 {
        fill: #fff;
      }

      .cls-2 {
        fill: #d44150;
      }
    </style>
  </defs>
  <g>
    <polygon class="cls-2" points="117.36 39.44 40.57 39.44 40.57 59.08 20.33 59.39 40.89 80.98 74.12 115.88 92.17 134.83 93.33 116.23 117.36 116.23 117.36 39.44"/>
    <polygon class="cls-1" points="75.77 114.31 42.53 79.41 25.56 61.59 41.73 61.33 94.53 60.51 91.09 115.62 90.22 129.49 75.77 114.31"/>
    <polygon class="cls-2" points="115.08 113.95 93.47 113.95 96.96 58.19 42.85 59.04 42.85 41.72 115.08 41.72 115.08 113.95"/>
    <path class="cls-1" d="M151.3,9.68c-3.03-3.22-6.64.38-6.64.38l-18.51,16.02-.1-.1-.11-.1c-12.78-11.42-29.26-17.72-46.4-17.72C41.11,8.16,9.86,39.42,9.86,77.84c0,14.5,4.46,27.98,12.07,39.14l-14.91,12.9-.95,4.55-6.07,5.31v3.03l3.79-.76,5.31-5.5,6.07-.95,12.53-11.24c12.77,14.22,31.27,23.18,51.84,23.18,38.42,0,69.68-31.26,69.68-69.68,0-16.7-6.02-32.86-17.04-45.62l18.37-16.48s3.79-2.84.76-6.07ZM144.66,77.84c0,35.91-29.21,65.13-65.13,65.13-19.22,0-36.52-8.38-48.45-21.67l46.65-41.85s3.79-2.84.76-6.07c-3.03-3.22-6.64.38-6.64.38l-46.47,40.22c-6.93-10.35-10.98-22.78-10.98-36.14C14.41,41.93,43.62,12.71,79.53,12.71c16,0,31.38,5.86,43.32,16.51l5.91,6c10.25,11.83,15.9,26.97,15.9,42.61Z"/>
  </g>
  <g>
    <g>
      <path class="cls-1" d="M223.13,44.27c-1.86-2.74-4.14-4.82-6.85-6.23-2.71-1.41-5.76-2.12-9.16-2.12-5.67,0-10.28,1.83-13.85,5.49-3.56,3.66-5.34,8.39-5.34,14.21,0,2.6.47,5.06,1.43,7.36.95,2.31,2.33,4.35,4.14,6.14,1.83,1.77,3.89,3.1,6.16,3.98,2.27.88,4.76,1.33,7.47,1.33,5.13,0,9.3-1.44,12.52-4.32,3.22-2.88,4.87-6.64,4.95-11.3h-15.78v-3.43h20.35v.48c0,6.95-1.99,12.4-5.97,16.33-3.98,3.93-9.46,5.9-16.44,5.9s-12.56-2.11-16.85-6.32c-4.29-4.21-6.43-9.73-6.43-16.57,0-3.14.54-6.11,1.62-8.9,1.08-2.79,2.64-5.22,4.69-7.29,2.21-2.24,4.71-3.92,7.49-5.04,2.78-1.11,5.88-1.67,9.3-1.67,4.65,0,8.63.8,11.94,2.4,3.31,1.6,5.86,3.95,7.66,7.05l-3.03,2.5Z"/>
      <path class="cls-1" d="M725.42,44.27c-1.86-2.74-4.14-4.82-6.85-6.23-2.71-1.41-5.76-2.12-9.16-2.12-5.67,0-10.28,1.83-13.85,5.49-3.56,3.66-5.34,8.39-5.34,14.21,0,2.6.47,5.06,1.43,7.36.95,2.31,2.33,4.35,4.14,6.14,1.83,1.77,3.89,3.1,6.16,3.98,2.27.88,4.76,1.33,7.47,1.33,5.13,0,9.3-1.44,12.52-4.32,3.22-2.88,4.87-6.64,4.95-11.3h-15.78v-3.43h20.35v.48c0,6.95-1.99,12.4-5.97,16.33-3.98,3.93-9.46,5.9-16.44,5.9s-12.56-2.11-16.85-6.32c-4.29-4.21-6.43-9.73-6.43-16.57,0-3.14.54-6.11,1.62-8.9,1.08-2.79,2.64-5.22,4.69-7.29,2.21-2.24,4.71-3.92,7.49-5.04,2.78-1.11,5.88-1.67,9.3-1.67,4.65,0,8.63.8,11.94,2.4,3.31,1.6,5.86,3.95,7.66,7.05l-3.03,2.5Z"/>
      <path class="cls-1" d="M245.5,78.06v-45.74h27.31v3.9h-23.97v14.31h23.97v3.9h-23.97v19.72h23.97v3.91h-27.31Z"/>
      <path class="cls-1" d="M575.41,78.06v-45.74h27.31v3.9h-23.97v14.31h23.97v3.9h-23.97v19.72h23.97v3.91h-27.31Z"/>
      <path class="cls-1" d="M334.83,55.3c0,3.09-.57,6.03-1.72,8.81-1.15,2.78-2.8,5.26-4.96,7.43-2.2,2.2-4.68,3.87-7.44,5.01s-5.68,1.72-8.75,1.72-5.99-.57-8.74-1.72c-2.75-1.15-5.22-2.82-7.4-5.01-2.18-2.21-3.84-4.7-4.97-7.46-1.14-2.76-1.71-5.69-1.71-8.78s.57-6.09,1.71-8.87c1.13-2.78,2.8-5.28,4.97-7.5,2.14-2.17,4.58-3.82,7.32-4.94,2.74-1.12,5.68-1.67,8.81-1.67s6.1.56,8.85,1.69c2.75,1.13,5.2,2.77,7.34,4.92,2.18,2.21,3.84,4.71,4.98,7.5,1.14,2.78,1.71,5.74,1.71,8.87ZM311.95,74.72c2.53,0,4.92-.48,7.18-1.44,2.26-.96,4.29-2.35,6.1-4.19,1.77-1.85,3.13-3.97,4.07-6.33.94-2.36,1.41-4.85,1.41-7.47s-.47-5.12-1.4-7.47c-.93-2.34-2.3-4.45-4.09-6.33-1.77-1.83-3.79-3.23-6.06-4.19s-4.67-1.44-7.22-1.44-4.91.48-7.15,1.44c-2.24.96-4.26,2.35-6.07,4.19-1.79,1.89-3.15,4-4.08,6.33s-1.4,4.81-1.4,7.47.47,5.12,1.4,7.47c.93,2.34,2.3,4.45,4.08,6.33,1.79,1.86,3.79,3.26,6.01,4.2,2.22.95,4.62,1.42,7.21,1.42Z"/>
      <path class="cls-1" d="M383.75,41.37c-2.22-1.88-4.48-3.28-6.79-4.18-2.32-.9-4.75-1.35-7.31-1.35-5.77,0-10.46,1.8-14.06,5.41-3.61,3.61-5.41,8.31-5.41,14.1,0,2.9.44,5.52,1.33,7.84.88,2.32,2.23,4.39,4.04,6.19,1.79,1.76,3.83,3.11,6.14,4.03,2.31.92,4.78,1.38,7.42,1.38s5.06-.43,7.5-1.29c2.43-.86,4.74-2.13,6.91-3.82v4.69c-2.2,1.32-4.51,2.34-6.96,3.05s-4.87,1.07-7.26,1.07c-3.23,0-6.32-.57-9.26-1.71-2.95-1.14-5.48-2.74-7.59-4.81-2.17-2.12-3.82-4.59-4.94-7.39-1.12-2.81-1.67-5.88-1.67-9.23s.57-6.35,1.72-9.2c1.15-2.84,2.8-5.3,4.95-7.36,2.09-2.02,4.62-3.61,7.57-4.75,2.95-1.14,6.03-1.71,9.22-1.71,2.84,0,5.48.39,7.91,1.16,2.42.77,4.64,1.93,6.63,3.47l-.06,4.42Z"/>
      <path class="cls-1" d="M398.95,78.48l19.11-46.16,18.3,46.16h-4.31l-5.55-15.04h-17.77l-5.76,15.04h-4.01ZM410.06,59.98h15.15l-7.43-19.32-7.73,19.32Z"/>
      <path class="cls-1" d="M453.33,78.48v-46.16l30.66,36.21v-36h3.66v46.17l-30.63-36.27v36.05h-3.7Z"/>
      <path class="cls-1" d="M748.3,78.48v-46.16l30.66,36.21v-36h3.66v46.17l-30.63-36.27v36.05h-3.7Z"/>
      <path class="cls-1" d="M524.17,78.08v-45.76h7.13c6.36,0,10.87.31,13.53.94,2.67.63,4.96,1.7,6.87,3.22,2.54,2.02,4.48,4.63,5.82,7.82,1.33,3.19,2,6.83,2,10.94s-.67,7.76-2,10.95c-1.34,3.2-3.25,5.76-5.75,7.67-1.98,1.52-4.24,2.6-6.78,3.25-2.54.65-6.64.97-12.28.97h-8.53ZM528.33,74.49h5.85c4.73,0,8.09-.27,10.06-.8,1.98-.53,3.65-1.43,5.03-2.7,1.92-1.79,3.36-4.02,4.35-6.69.98-2.67,1.47-5.71,1.47-9.13s-.5-6.59-1.49-9.25c-.99-2.67-2.46-4.86-4.39-6.57-1.46-1.31-3.24-2.24-5.35-2.78-2.1-.54-5.78-.81-11.03-.81h-4.5v38.73Z"/>
      <path class="cls-1" d="M620.31,69.55l4.08-1.81c.76,2.14,2.08,3.8,3.96,4.98,1.87,1.18,4.12,1.77,6.75,1.77,3.32,0,5.9-.81,7.76-2.44,1.86-1.62,2.79-3.87,2.79-6.74,0-2.1-.62-3.84-1.88-5.23-1.25-1.39-3.94-2.99-8.07-4.81-5.27-2.32-8.78-4.36-10.52-6.12-1.75-1.76-2.61-3.88-2.61-6.36,0-3.09,1.26-5.61,3.77-7.55,2.52-1.94,5.78-2.91,9.79-2.91,2.63,0,4.91.46,6.85,1.38,1.95.92,3.53,2.3,4.74,4.14l-3.69,1.84c-.76-1.25-1.84-2.2-3.24-2.85-1.4-.65-3.05-.98-4.96-.98-2.57,0-4.63.63-6.15,1.89-1.53,1.26-2.29,2.96-2.29,5.1,0,3.05,3.03,5.89,9.09,8.53,1.1.48,1.93.84,2.51,1.1,4.46,2.04,7.44,3.97,8.95,5.78,1.5,1.81,2.25,4.17,2.25,7.06,0,3.9-1.38,7-4.12,9.29-2.75,2.29-6.48,3.43-11.2,3.43-3.44,0-6.38-.71-8.82-2.13-2.44-1.41-4.36-3.53-5.74-6.34Z"/>
      <path class="cls-1" d="M666.39,77.76v-45.44h3.64v45.44h-3.64Z"/>
    </g>
    <g>
      <path class="cls-1" d="M234.66,116.84c-.91-1.42-2.04-2.49-3.37-3.22s-2.84-1.09-4.51-1.09c-2.79,0-5.07.94-6.82,2.83-1.76,1.89-2.63,4.34-2.63,7.34,0,1.34.23,2.61.7,3.8s1.15,2.25,2.04,3.17c.9.91,1.91,1.6,3.03,2.06s2.35.68,3.68.68c2.53,0,4.58-.74,6.17-2.23s2.4-3.43,2.44-5.84h-7.77v-1.77h10.02v.25c0,3.59-.98,6.4-2.94,8.44-1.96,2.03-4.66,3.05-8.1,3.05s-6.18-1.09-8.3-3.26c-2.11-2.18-3.17-5.03-3.17-8.56,0-1.62.27-3.15.8-4.6.53-1.44,1.3-2.7,2.31-3.77,1.09-1.16,2.32-2.03,3.69-2.6,1.37-.58,2.9-.86,4.58-.86,2.29,0,4.25.41,5.88,1.24,1.63.83,2.89,2.04,3.77,3.64l-1.49,1.29Z"/>
      <path class="cls-1" d="M260.36,133.71h-2.49l-7.91-10.75h-1.23v10.75h-2.05v-22.54h4.14c2.44,0,4.27.51,5.49,1.52,1.22,1.02,1.82,2.56,1.82,4.62,0,1.76-.52,3.14-1.56,4.14-1.04,1.01-2.48,1.51-4.3,1.51l8.1,10.75ZM248.72,112.96v8.33h2.06c1.91,0,3.24-.31,4-.92.75-.61,1.13-1.65,1.13-3.12,0-1.55-.39-2.65-1.17-3.31-.78-.66-2.1-.99-3.96-.99h-2.06Z"/>
      <path class="cls-1" d="M264.97,133.71l9.9-23.43,9.49,23.43h-2.23l-2.88-7.64h-9.21l-2.99,7.64h-2.08ZM270.72,124.32h7.85l-3.85-9.81-4,9.81Z"/>
      <path class="cls-1" d="M291.61,133.71v-22.54h4.11c1.62,0,2.81.09,3.58.26.76.17,1.43.46,1.99.86.71.51,1.26,1.22,1.65,2.11.39.89.59,1.88.59,2.97,0,2.15-.6,3.72-1.8,4.72s-3.1,1.5-5.7,1.5h-2.37v10.12h-2.05ZM293.65,121.79h1.4c2.48,0,4.15-.32,5.01-.95s1.29-1.74,1.29-3.32c0-.67-.1-1.28-.29-1.84-.2-.56-.49-1.06-.88-1.5-.4-.45-.94-.77-1.63-.95-.69-.18-1.85-.28-3.5-.28h-1.4v8.84Z"/>
      <path class="cls-1" d="M312.1,133.71v-22.54h2.05v9.15h12.27v-9.15h2.05v22.54h-2.05v-11.64h-12.27v11.64h-2.05Z"/>
      <path class="cls-1" d="M338.8,133.71v-22.54h2.05v22.54h-2.05Z"/>
      <path class="cls-1" d="M369.3,115.3c-1.12-.96-2.26-1.68-3.43-2.14s-2.4-.69-3.69-.69c-2.92,0-5.28.92-7.11,2.77-1.82,1.85-2.73,4.25-2.73,7.22,0,1.49.22,2.83.67,4.02.45,1.19,1.13,2.25,2.04,3.17.9.9,1.94,1.59,3.1,2.06,1.16.47,2.41.71,3.75.71s2.56-.22,3.79-.66,2.4-1.09,3.5-1.96v2.4c-1.11.68-2.28,1.2-3.52,1.56-1.24.36-2.46.55-3.67.55-1.63,0-3.19-.29-4.68-.88s-2.77-1.41-3.83-2.46c-1.1-1.09-1.93-2.35-2.5-3.79-.56-1.44-.85-3.01-.85-4.73s.29-3.25.87-4.71c.58-1.46,1.41-2.72,2.5-3.77,1.06-1.04,2.33-1.85,3.83-2.43,1.49-.59,3.05-.88,4.66-.88,1.44,0,2.77.2,4,.59s2.34.99,3.35,1.78l-.03,2.26Z"/>
      <path class="cls-1" d="M425.65,134.59l-8.82-23.42h2.36l6.5,18.35,6.84-18.35h2.25l-9.11,23.42Z"/>
      <path class="cls-1" d="M442.01,133.71v-22.54h2.05v22.54h-2.05Z"/>
      <path class="cls-1" d="M452.68,129.92l1.76-.94c.33,1.11.9,1.97,1.7,2.58.81.61,1.77.92,2.9.92,1.43,0,2.54-.42,3.34-1.26.8-.84,1.2-2.01,1.2-3.5,0-1.09-.27-1.99-.81-2.71-.54-.72-1.7-1.55-3.47-2.49-2.27-1.2-3.78-2.26-4.53-3.17-.75-.91-1.12-2.01-1.12-3.29,0-1.6.54-2.9,1.62-3.91,1.08-1.01,2.49-1.51,4.21-1.51,1.13,0,2.11.24,2.95.72.84.48,1.52,1.19,2.04,2.15l-1.59.95c-.33-.65-.79-1.14-1.39-1.48-.6-.34-1.31-.51-2.13-.51-1.11,0-1.99.33-2.65.98-.66.65-.99,1.53-.99,2.64,0,1.58,1.3,3.05,3.91,4.42.47.25.83.44,1.08.57,1.92,1.06,3.2,2.06,3.85,2.99.65.94.97,2.16.97,3.66,0,2.02-.59,3.63-1.77,4.81-1.18,1.19-2.79,1.78-4.82,1.78-1.48,0-2.74-.37-3.8-1.1-1.05-.73-1.88-1.83-2.47-3.29Z"/>
      <path class="cls-1" d="M474.75,111.17h2.02v14.72c0,2.23.51,3.88,1.52,4.96,1.02,1.08,2.57,1.62,4.67,1.62s3.6-.54,4.62-1.62c1.02-1.08,1.52-2.74,1.52-4.96v-14.72h2.05v14.06c0,3.05-.68,5.32-2.03,6.83-1.35,1.5-3.41,2.26-6.16,2.26s-4.82-.75-6.17-2.26-2.03-3.78-2.03-6.83v-14.06Z"/>
      <path class="cls-1" d="M497.75,133.71l9.9-23.43,9.49,23.43h-2.23l-2.88-7.64h-9.21l-2.99,7.64h-2.08ZM503.51,124.32h7.85l-3.85-9.81-4,9.81Z"/>
      <path class="cls-1" d="M524.39,133.71v-22.54h2.05v20.62h7.73v1.92h-9.78Z"/>
      <path class="cls-1" d="M591.85,134.59l-7.77-23.42h2.14l5.64,18,6-18.89,6.24,18.74,5.42-17.84h2.13l-7.54,23.42-6.24-19.14-6,19.14Z"/>
      <path class="cls-1" d="M619.53,133.71v-22.54h11.16v1.93h-9.12v7.05h9.12v1.92h-9.12v9.72h9.12v1.92h-11.16Z"/>
      <path class="cls-1" d="M640.44,133.71v-22.54h3.91c1.71,0,2.95.08,3.71.25.76.16,1.41.45,1.94.85.75.57,1.32,1.25,1.71,2.07.39.82.59,1.72.59,2.7,0,1.2-.31,2.22-.94,3.06-.63.84-1.49,1.4-2.59,1.66,1.45.22,2.58.79,3.4,1.74.82.94,1.23,2.14,1.23,3.59,0,1.06-.16,2-.48,2.82-.32.82-.8,1.53-1.45,2.13-.66.62-1.45,1.05-2.37,1.3-.92.25-2.5.38-4.73.38h-3.94ZM642.49,121.19h2.56c1.88,0,3.2-.31,3.98-.92.77-.62,1.16-1.64,1.16-3.08,0-1.55-.38-2.64-1.13-3.28-.76-.64-2.09-.95-4.01-.95h-2.56v8.24ZM642.49,131.94h2.62c1.49,0,2.51-.06,3.08-.18.56-.12,1.04-.33,1.43-.63.48-.37.87-.88,1.15-1.53.29-.65.43-1.35.43-2.09,0-.9-.16-1.7-.48-2.38-.32-.68-.76-1.19-1.32-1.53-.39-.23-.85-.39-1.38-.49-.53-.1-1.35-.15-2.47-.15h-3.06v8.98Z"/>
      <path class="cls-1" d="M660.89,129.92l1.76-.94c.33,1.11.9,1.97,1.7,2.58.81.61,1.77.92,2.9.92,1.43,0,2.54-.42,3.34-1.26.8-.84,1.2-2.01,1.2-3.5,0-1.09-.27-1.99-.81-2.71-.54-.72-1.7-1.55-3.47-2.49-2.27-1.2-3.78-2.26-4.53-3.17-.75-.91-1.12-2.01-1.12-3.29,0-1.6.54-2.9,1.62-3.91,1.08-1.01,2.49-1.51,4.21-1.51,1.13,0,2.11.24,2.95.72.84.48,1.52,1.19,2.04,2.15l-1.59.95c-.33-.65-.79-1.14-1.39-1.48-.6-.34-1.31-.51-2.13-.51-1.11,0-1.99.33-2.65.98-.66.65-.99,1.53-.99,2.64,0,1.58,1.3,3.05,3.91,4.42.47.25.83.44,1.08.57,1.92,1.06,3.2,2.06,3.85,2.99.65.94.97,2.16.97,3.66,0,2.02-.59,3.63-1.77,4.81-1.18,1.19-2.79,1.78-4.82,1.78-1.48,0-2.74-.37-3.8-1.1-1.05-.73-1.88-1.83-2.47-3.29Z"/>
      <path class="cls-1" d="M683.05,133.71v-22.54h2.05v22.54h-2.05Z"/>
      <path class="cls-1" d="M699.45,133.71v-20.62h-6.21v-1.93h14.47v1.93h-6.22v20.62h-2.05Z"/>
      <path class="cls-1" d="M715.85,133.71v-22.54h11.16v1.93h-9.12v7.05h9.12v1.92h-9.12v9.72h9.12v1.92h-11.16Z"/>
      <path class="cls-1" d="M735.04,129.92l1.76-.94c.33,1.11.9,1.97,1.7,2.58.81.61,1.77.92,2.9.92,1.43,0,2.54-.42,3.34-1.26.8-.84,1.2-2.01,1.2-3.5,0-1.09-.27-1.99-.81-2.71-.54-.72-1.7-1.55-3.47-2.49-2.27-1.2-3.78-2.26-4.53-3.17-.75-.91-1.12-2.01-1.12-3.29,0-1.6.54-2.9,1.62-3.91,1.08-1.01,2.49-1.51,4.21-1.51,1.13,0,2.11.24,2.95.72.84.48,1.52,1.19,2.04,2.15l-1.59.95c-.33-.65-.79-1.14-1.39-1.48-.6-.34-1.31-.51-2.13-.51-1.11,0-1.99.33-2.65.98-.66.65-.99,1.53-.99,2.64,0,1.58,1.3,3.05,3.91,4.42.47.25.83.44,1.08.57,1.92,1.06,3.2,2.06,3.85,2.99.65.94.97,2.16.97,3.66,0,2.02-.59,3.63-1.77,4.81-1.18,1.19-2.79,1.78-4.82,1.78-1.48,0-2.74-.37-3.8-1.1-1.05-.73-1.88-1.83-2.47-3.29Z"/>
    </g>
    <rect class="cls-1" x="778.22" y="110.56" width="1" height="22.9"/>
    <rect class="cls-1" x="554.59" y="110.56" width="1" height="22.9"/>
    <rect class="cls-1" x="391.96" y="110.56" width="1" height="22.9"/>
    <rect class="cls-1" x="182.97" y="110.56" width="1" height="22.9"/>
  </g>
</svg>